<?xml version="1.0" encoding="UTF-8" standalone="no"?>
<!DOCTYPE svg PUBLIC "-//W3C//DTD SVG 1.1//EN" "http://www.w3.org/Graphics/SVG/1.1/DTD/svg11.dtd">
<svg width="100%" height="100%" viewBox="0 0 500 500" version="1.1" xmlns="http://www.w3.org/2000/svg" xmlns:xlink="http://www.w3.org/1999/xlink" xml:space="preserve" xmlns:serif="http://www.serif.com/" style="fill-rule:evenodd;clip-rule:evenodd;stroke-linejoin:round;stroke-miterlimit:2;">
    <g transform="matrix(1,0,0,1,7.66647,1.55479)">
        <g transform="matrix(1.96859,0,0,1.96859,-419.824,-146.84)">
            <path d="M293.131,199.928C288.975,173.773 305.286,156.172 325.45,129.581C328.958,124.955 332.588,115.805 332.87,105.997C333.148,96.336 330.091,85.988 331.855,85.318C340.372,82.084 364.011,105.749 372.741,120.166C380.619,133.176 379.931,162.559 379.931,162.559C379.931,162.559 385.004,157.196 388.419,152.129C392.359,146.284 394.619,140.851 396.008,141.278C397.628,141.777 416.275,165.029 413.271,207.17C411.019,238.755 361.414,277.924 351.082,275.541C350.745,275.463 352.501,254.602 352.501,254.602C350.024,254.259 300.272,244.875 293.131,199.928Z" style="fill:rgb(255,96,0);"/>
            <path d="M351.054,148.591C351.054,148.591 348.023,167.306 358.224,180.331C363.561,187.146 367.155,188.804 373.275,194.924C377.094,198.743 384.29,208.251 384.608,217.203C385.119,231.573 377.955,237.932 376.281,239.79C362.462,255.13 343.193,245.587 343.193,245.587C342.634,232.124 335.94,221.567 324.007,215.21C324.007,215.21 320.083,199.098 325.214,184.474C333.389,161.177 351.054,148.591 351.054,148.591Z" style="fill:white;"/>
        </g>
        <g transform="matrix(5.31664,0,0,5.31664,-699.189,-972.706)">
            <g transform="matrix(50,0,0,50,178.203,272.554)">
            </g>
            <text x="144.854px" y="272.554px" style="font-family:'Arial-BoldMT', 'Arial', sans-serif;font-weight:700;font-size:50px;fill:white;">P</text>
        </g>
    </g>
</svg>
