<?xml version="1.0" encoding="UTF-8" standalone="no"?>
<!DOCTYPE svg PUBLIC "-//W3C//DTD SVG 1.1//EN" "http://www.w3.org/Graphics/SVG/1.1/DTD/svg11.dtd">
<svg width="100%" height="100%" viewBox="0 0 500 500" version="1.1" xmlns="http://www.w3.org/2000/svg" xmlns:xlink="http://www.w3.org/1999/xlink" xml:space="preserve" style="fill-rule:evenodd;clip-rule:evenodd;stroke-linejoin:round;stroke-miterlimit:2;">
    <g>
        <g>
            <path d="M293.131,199.928C288.975,173.773 305.286,156.172 325.45,129.581C328.958,124.955 332.588,115.805 332.87,105.997C333.148,96.336 330.091,85.988 331.855,85.318C340.372,82.084 364.011,105.749 372.741,120.166C380.619,133.176 379.931,162.559 379.931,162.559C379.931,162.559 385.004,157.196 388.419,152.129C392.359,146.284 394.619,140.851 396.008,141.278C397.628,141.777 416.275,165.029 413.271,207.17C411.019,238.755 361.414,277.924 351.082,275.541C350.745,275.463 352.501,254.602 352.501,254.602C350.024,254.259 300.272,244.875 293.131,199.928Z" style="fill:rgb(255,96,0);"/>
            <path d="M351.054,148.591C351.054,148.591 348.023,167.306 358.224,180.331C363.561,187.146 367.155,188.804 373.275,194.924C377.094,198.743 384.29,208.251 384.608,217.203C385.119,231.573 377.955,237.932 376.281,239.79C362.462,255.13 343.193,245.587 343.193,245.587C342.634,232.124 335.94,221.567 324.007,215.21C324.007,215.21 320.083,199.098 325.214,184.474C333.389,161.177 351.054,148.591 351.054,148.591Z" style="fill:white;"/>
        </g>
        <g transform="matrix(2.70073,0,0,2.70073,-329.332,-444.299)">
            <g transform="matrix(50,0,0,50,144.854,272.554)">
                <path d="M0.073,-0L0.073,-0.716L0.305,-0.716C0.393,-0.716 0.45,-0.712 0.477,-0.705C0.518,-0.694 0.552,-0.671 0.58,-0.635C0.607,-0.599 0.621,-0.553 0.621,-0.496C0.621,-0.452 0.613,-0.415 0.597,-0.385C0.581,-0.355 0.561,-0.331 0.536,-0.314C0.512,-0.297 0.487,-0.286 0.461,-0.28C0.427,-0.273 0.377,-0.27 0.312,-0.27L0.217,-0.27L0.217,-0L0.073,-0ZM0.217,-0.595L0.217,-0.392L0.296,-0.392C0.353,-0.392 0.391,-0.395 0.411,-0.403C0.43,-0.41 0.445,-0.422 0.456,-0.438C0.467,-0.454 0.472,-0.472 0.472,-0.494C0.472,-0.52 0.465,-0.541 0.449,-0.558C0.434,-0.575 0.415,-0.586 0.391,-0.59C0.374,-0.593 0.339,-0.595 0.287,-0.595L0.217,-0.595Z" style="fill:white;fill-rule:nonzero;"/>
            </g>
            <g transform="matrix(50,0,0,50,176.753,272.554)">
                <path d="M0.012,-0.519L0.088,-0.519L0.088,-0.558C0.088,-0.601 0.093,-0.634 0.102,-0.655C0.111,-0.677 0.128,-0.694 0.153,-0.708C0.178,-0.721 0.209,-0.728 0.248,-0.728C0.287,-0.728 0.325,-0.722 0.362,-0.71L0.344,-0.615C0.322,-0.62 0.301,-0.623 0.281,-0.623C0.261,-0.623 0.247,-0.618 0.238,-0.609C0.229,-0.599 0.225,-0.582 0.225,-0.555L0.225,-0.519L0.328,-0.519L0.328,-0.411L0.225,-0.411L0.225,-0L0.088,-0L0.088,-0.411L0.012,-0.411L0.012,-0.519Z" style="fill:white;fill-rule:nonzero;"/>
            </g>
            <g transform="matrix(50,0,0,50,191.954,272.554)">
                <path d="M0.543,-0L0.406,-0L0.406,-0.265C0.406,-0.321 0.403,-0.357 0.397,-0.373C0.392,-0.39 0.382,-0.403 0.369,-0.412C0.356,-0.421 0.34,-0.425 0.321,-0.425C0.298,-0.425 0.276,-0.419 0.257,-0.406C0.238,-0.393 0.226,-0.375 0.219,-0.354C0.212,-0.333 0.208,-0.293 0.208,-0.235L0.208,-0L0.071,-0L0.071,-0.519L0.198,-0.519L0.198,-0.442C0.243,-0.501 0.3,-0.53 0.369,-0.53C0.399,-0.53 0.427,-0.525 0.452,-0.514C0.477,-0.503 0.496,-0.489 0.509,-0.472C0.522,-0.455 0.531,-0.436 0.536,-0.415C0.541,-0.393 0.543,-0.362 0.543,-0.322L0.543,-0Z" style="fill:white;fill-rule:nonzero;"/>
            </g>
            <g transform="matrix(50,0,0,50,221.046,272.554)">
                <path d="M0.023,-0.148L0.161,-0.169C0.167,-0.142 0.179,-0.122 0.197,-0.108C0.215,-0.094 0.24,-0.087 0.272,-0.087C0.307,-0.087 0.334,-0.094 0.352,-0.107C0.364,-0.116 0.37,-0.128 0.37,-0.144C0.37,-0.154 0.367,-0.163 0.36,-0.169C0.354,-0.176 0.338,-0.182 0.314,-0.188C0.204,-0.212 0.134,-0.234 0.104,-0.254C0.063,-0.282 0.042,-0.321 0.042,-0.371C0.042,-0.416 0.06,-0.454 0.096,-0.484C0.131,-0.515 0.186,-0.53 0.261,-0.53C0.332,-0.53 0.384,-0.519 0.419,-0.496C0.453,-0.472 0.477,-0.438 0.49,-0.393L0.361,-0.369C0.355,-0.389 0.345,-0.405 0.329,-0.416C0.314,-0.426 0.292,-0.432 0.263,-0.432C0.227,-0.432 0.201,-0.427 0.186,-0.417C0.175,-0.409 0.17,-0.4 0.17,-0.389C0.17,-0.379 0.174,-0.371 0.184,-0.364C0.196,-0.355 0.239,-0.342 0.312,-0.325C0.385,-0.309 0.436,-0.288 0.465,-0.264C0.493,-0.24 0.508,-0.206 0.508,-0.162C0.508,-0.115 0.488,-0.074 0.448,-0.04C0.409,-0.005 0.35,0.012 0.272,0.012C0.201,0.012 0.145,-0.003 0.104,-0.031C0.063,-0.06 0.036,-0.099 0.023,-0.148Z" style="fill:white;fill-rule:nonzero;"/>
            </g>
        </g>
    </g>
</svg>
